<?xml version="1.0" encoding="UTF-8"?>
<svg width="400" height="800" viewBox="0 0 400 800" xmlns="http://www.w3.org/2000/svg">
  <rect width="400" height="800" fill="#000000"/>
  <!-- Large stars -->
  <circle cx="50" cy="50" r="2" fill="#ffffff" opacity="0.9"/>
  <circle cx="150" cy="175" r="2" fill="#ffffff" opacity="0.9"/>
  <circle cx="250" cy="350" r="2" fill="#ffffff" opacity="0.9"/>
  <circle cx="350" cy="500" r="2" fill="#ffffff" opacity="0.9"/>
  <circle cx="100" cy="650" r="2" fill="#ffffff" opacity="0.9"/>
  <circle cx="200" cy="750" r="2" fill="#ffffff" opacity="0.9"/>
  <circle cx="300" cy="450" r="2" fill="#ffffff" opacity="0.9"/>
  
  <!-- Medium stars -->
  <circle cx="75" cy="125" r="1.5" fill="#ffffff" opacity="0.7"/>
  <circle cx="175" cy="225" r="1.5" fill="#ffffff" opacity="0.7"/>
  <circle cx="275" cy="375" r="1.5" fill="#ffffff" opacity="0.7"/>
  <circle cx="25" cy="475" r="1.5" fill="#ffffff" opacity="0.7"/>
  <circle cx="125" cy="525" r="1.5" fill="#ffffff" opacity="0.7"/>
  <circle cx="225" cy="675" r="1.5" fill="#ffffff" opacity="0.7"/>
  <circle cx="325" cy="725" r="1.5" fill="#ffffff" opacity="0.7"/>
  
  <!-- Small stars -->
  <circle cx="85" cy="85" r="1" fill="#ffffff" opacity="0.5"/>
  <circle cx="185" cy="235" r="1" fill="#ffffff" opacity="0.5"/>
  <circle cx="285" cy="410" r="1" fill="#ffffff" opacity="0.5"/>
  <circle cx="385" cy="560" r="1" fill="#ffffff" opacity="0.5"/>
  <circle cx="135" cy="610" r="1" fill="#ffffff" opacity="0.5"/>
  <circle cx="235" cy="760" r="1" fill="#ffffff" opacity="0.5"/>
  <circle cx="335" cy="310" r="1" fill="#ffffff" opacity="0.5"/>
  
  <!-- Tiny stars -->
  <circle cx="45" cy="145" r="0.5" fill="#ffffff" opacity="0.3"/>
  <circle cx="145" cy="295" r="0.5" fill="#ffffff" opacity="0.3"/>
  <circle cx="245" cy="445" r="0.5" fill="#ffffff" opacity="0.3"/>
  <circle cx="345" cy="595" r="0.5" fill="#ffffff" opacity="0.3"/>
  <circle cx="95" cy="645" r="0.5" fill="#ffffff" opacity="0.3"/>
  <circle cx="195" cy="795" r="0.5" fill="#ffffff" opacity="0.3"/>
  <circle cx="295" cy="195" r="0.5" fill="#ffffff" opacity="0.3"/>
</svg> 